<svg xmlns="http://www.w3.org/2000/svg" viewBox="0 0 48 32" width="200" height="200">
  <!-- W - Geometric with heavy strokes -->
  <g>
    {/* Outer white W */}
    <path
      d="M2 4 L6 4 L10 24 L14 4 L18 4 L22 24 L26 4 L30 4 L24 28 L20 28 L16 10 L12 28 L8 28 Z"
      fill="#ffffff"
    />
    {/* Inner dark W for contrast */}
    <path
      d="M4 6 L8 6 L11 22 L14 6 L18 6 L21 22 L24 6 L28 6 L23 26 L19 26 L16 12 L13 26 L9 26 Z"
      fill="#1e293b"
    />
  </g>

  {/* I - Solid bar with spacing */}
  <g>
    {/* Outer white I */}
    <rect x="36" y="4" width="6" height="24" fill="#ffffff" />
    {/* Inner dark I for contrast */}
    <rect x="37" y="6" width="4" height="20" fill="#1e293b" />
  </g>
</svg>
